<svg width="30" height="30" viewBox="0 0 30 30" fill="none" xmlns="http://www.w3.org/2000/svg">
<path d="M15 2.5C21.8925 2.5 27.5 8.1075 27.5 15C27.5 21.8925 21.8925 27.5 15 27.5C8.1075 27.5 2.5 21.8925 2.5 15C2.5 8.1075 8.1075 2.5 15 2.5ZM15 0C6.71625 0 0 6.71625 0 15C0 23.2837 6.71625 30 15 30C23.2837 30 30 23.2837 30 15C30 6.71625 23.2837 0 15 0ZM22.5 20.6725L16.76 14.9875L22.4425 9.25375L20.6725 7.5L14.9913 13.2362L9.25625 7.5575L7.5 9.31375L13.2413 15.0038L7.5575 20.7437L9.31375 22.5L15.0075 16.755L20.7463 22.4425L22.5 20.6725Z" fill="white"/>
</svg>
