<svg width="24" height="24" viewBox="0 0 24 24" fill="none" xmlns="http://www.w3.org/2000/svg">
<path d="M12 2C17.514 2 22 6.486 22 12C22 17.514 17.514 22 12 22C6.486 22 2 17.514 2 12C2 6.486 6.486 2 12 2ZM12 0C5.373 0 0 5.373 0 12C0 18.627 5.373 24 12 24C18.627 24 24 18.627 24 12C24 5.373 18.627 0 12 0ZM12 15.781C9.916 15.781 8.219 14.085 8.219 12C8.219 9.915 9.915 8.219 12 8.219C13.172 8.219 14.306 8.742 15.136 9.888L16.993 8.67C15.712 6.844 13.86 6 12 6C8.692 6 6 8.692 6 12C6 15.308 8.691 18 12 18C13.881 18 15.724 17.141 16.994 15.33L15.137 14.112C14.309 15.252 13.178 15.781 12 15.781Z" fill="white"/>
</svg>
